<?xml version="1.0" encoding="UTF-8"?>
<svg width="42px" height="42px" viewBox="0 0 42 42" version="1.1" xmlns="http://www.w3.org/2000/svg" xmlns:xlink="http://www.w3.org/1999/xlink">
    <title>11</title>
    <defs>
        <linearGradient x1="50%" y1="0%" x2="50%" y2="100%" id="linearGradient-1">
            <stop stop-color="#88CBFE" offset="0.0453282069%"></stop>
            <stop stop-color="#529ED7" offset="100%"></stop>
        </linearGradient>
    </defs>
    <g id="页面-1" stroke="none" stroke-width="1" fill="none" fill-rule="evenodd">
        <g id="mine-（蓝色）" transform="translate(-47.000000, -472.000000)">
            <g id="team-2" transform="translate(15.000000, 452.000000)">
                <g id="11" transform="translate(32.000000, 20.000000)">
                    <circle id="椭圆形" fill="url(#linearGradient-1)" cx="21" cy="21" r="21"></circle>
                    <g id="团队管理-(1)" transform="translate(11.666667, 10.888889)" fill="#FFFFFF" fill-rule="nonzero">
                        <path d="M7.49781869,10.0538932 C10.2668995,10.0538932 12.4395628,7.88122986 12.4395628,5.02694661 C12.4395628,2.25786584 10.181697,0 7.49781869,0 C4.72873792,0 2.47087208,2.3004671 2.47087208,5.02694661 C2.47087208,7.88122986 4.72873794,10.0538932 7.49781869,10.0538932 Z M12.3969616,12.1839554 C11.4597342,11.5023355 10.2242982,11.2041268 9.07406466,11.2041268 L6.17718018,11.2041268 C5.02694663,11.2041268 3.79151059,11.5023355 2.85428326,12.1413541 C1.15023357,13.2915877 0,15.2512448 0,17.4665094 L0,17.8499206 C0,19.7243753 2.72647952,19.7669765 6.21978142,19.7669765 L9.11666592,19.7669765 C12.6099678,19.7669765 15.3364473,19.7669765 15.3364473,17.8499206 L15.3364473,17.4665094 C15.3364473,15.2512448 14.1436125,13.2915876 12.3969616,12.1839554 L12.3969616,12.1839554 Z" id="形状"></path>
                        <path d="M16.3588771,10.9911206 C15.8902635,10.6929119 15.0808399,10.1390957 14.3566187,10.0538932 C15.5494535,9.45747582 16.4866809,8.26464104 16.4866809,6.73099631 C16.4866809,4.64353543 14.9956374,2.85428324 12.993379,2.85428324 C12.993379,2.85428324 13.1211827,2.85428324 12.993379,2.85428324 C13.7602013,3.66370684 13.9732076,4.98434538 13.8028026,6.13457892 C13.5471951,8.0090336 12.4395628,9.41487461 10.9911206,10.1390957 C11.8857467,10.2242982 12.8655753,10.8633168 13.5897964,11.3745318 C15.2086436,12.3969616 16.2736747,14.228815 16.2736747,16.2736746 L16.2736747,16.8274908 C17.7221169,16.7422883 18.6593442,16.4014784 18.6593442,15.464251 L18.6593442,15.1660423 C18.787148,13.6323976 17.210902,11.5023355 16.3588771,10.9911206 L16.3588771,10.9911206 Z" id="路径"></path>
                    </g>
                </g>
            </g>
        </g>
    </g>
</svg>