<?xml version="1.0" encoding="UTF-8"?>
<svg width="42px" height="42px" viewBox="0 0 42 42" version="1.1" xmlns="http://www.w3.org/2000/svg" xmlns:xlink="http://www.w3.org/1999/xlink">
    <title>33</title>
    <defs>
        <linearGradient x1="50%" y1="0%" x2="50%" y2="100%" id="linearGradient-1">
            <stop stop-color="#88CBFE" offset="0.0453282069%"></stop>
            <stop stop-color="#529ED7" offset="100%"></stop>
        </linearGradient>
    </defs>
    <g id="页面-1" stroke="none" stroke-width="1" fill="none" fill-rule="evenodd">
        <g id="mine-（蓝色）" transform="translate(-287.000000, -463.000000)">
            <g id="Transfer-to-VIP-account-2" transform="translate(255.000000, 452.000000)">
                <g id="编组-5" transform="translate(6.000000, 11.000000)">
                    <g id="33" transform="translate(26.000000, 0.000000)">
                        <circle id="椭圆形" fill="url(#linearGradient-1)" cx="21" cy="21" r="21"></circle>
                        <g id="钱包-(2)" transform="translate(11.666667, 13.222222)" fill="#FFFFFF" fill-rule="nonzero">
                            <path d="M10.8181107,6.46498975 C10.4612633,6.82183715 10.2651015,7.29137321 10.2651015,7.79012484 L10.2651015,8.53720887 C10.2651015,9.0359605 10.4612633,9.50549655 10.8181107,9.86234395 C11.1749581,10.2191914 11.6444941,10.4153531 12.1432458,10.4153531 L18.6666667,10.4153531 L18.6666667,5.91198062 L12.1432458,5.91198062 C11.6444941,5.91198062 11.1728713,6.10814235 10.8181107,6.46498975 Z M12.9111981,7.32893609 C13.3723868,7.32893609 13.7459288,7.70247811 13.7459288,8.16366685 C13.7459288,8.6248556 13.3723868,8.99839762 12.9111981,8.99839762 C12.4500093,8.99839762 12.0764673,8.6248556 12.0764673,8.16366685 C12.0764673,7.70247811 12.4500093,7.32893609 12.9111981,7.32893609 Z" id="形状"></path>
                            <path d="M16.1249115,0 L2.543842,0 C1.14149432,0 0,1.13940749 0,2.543842 L0,13.7834917 C0,15.1858394 1.13940749,16.3273337 2.543842,16.3273337 L16.1228247,16.3273337 C17.5251723,16.3273337 18.6666667,15.1879262 18.6666667,13.7834917 L18.6666667,11.4587665 L12.1432458,11.4587665 C10.536389,11.4587665 9.22168809,10.1440656 9.22168809,8.53720887 L9.22168809,7.79012484 C9.22168809,6.18326812 10.536389,4.86856717 12.1432458,4.86856717 L18.6666667,4.86856717 L18.6666667,2.543842 C18.6666667,1.14149432 17.5251723,0 16.1249115,0 Z" id="路径"></path>
                        </g>
                    </g>
                </g>
            </g>
        </g>
    </g>
</svg>