<?xml version="1.0" encoding="UTF-8"?>
<svg width="42px" height="42px" viewBox="0 0 42 42" version="1.1" xmlns="http://www.w3.org/2000/svg" xmlns:xlink="http://www.w3.org/1999/xlink">
    <title>44</title>
    <defs>
        <linearGradient x1="50%" y1="0%" x2="50%" y2="100%" id="linearGradient-1">
            <stop stop-color="#88CBFE" offset="0.0453282069%"></stop>
            <stop stop-color="#529ED7" offset="100%"></stop>
        </linearGradient>
    </defs>
    <g id="页面-1" stroke="none" stroke-width="1" fill="none" fill-rule="evenodd">
        <g id="mine-（蓝色）" transform="translate(-47.000000, -592.000000)">
            <g id="share-2" transform="translate(15.000000, 572.000000)">
                <g id="44" transform="translate(32.000000, 20.000000)">
                    <circle id="椭圆形" fill="url(#linearGradient-1)" cx="21" cy="21" r="21"></circle>
                    <g id="分享-(6)" transform="translate(10.888889, 13.222222)" fill="#FFFFFF" fill-rule="nonzero">
                        <path d="M20.0114793,2.65102104 L12.1991304,17.3389765 C11.8560442,17.9839444 11.1578501,18.358331 10.4307788,18.2872044 C9.7037074,18.2160779 9.09130523,17.7134808 8.87971655,17.0142512 L7.06982417,11.0384042 C6.83974028,10.2781167 7.13402328,9.45679791 7.79459293,9.01563638 L14.9980819,4.20474127 C15.1943495,4.07371872 15.2564333,3.81354943 15.1404761,3.60802125 C15.0245189,3.40249307 14.7697293,3.32110092 14.5560947,3.42134155 L6.68511492,7.10607137 C6.03167683,7.41201556 5.2587933,7.2991962 4.72007601,6.81923072 L0.603732181,3.15073716 C0.045098788,2.65280509 -0.148124279,1.86168374 0.118076036,1.16229472 C0.384276351,0.462905705 1.05462424,0.00047533463 1.80296065,6.25898392e-16 L18.4180704,6.25898392e-16 C19.0513842,6.25898392e-16 19.6383405,0.332008113 19.9645307,0.874858206 C20.290721,1.4177083 20.3083691,2.09184775 20.0110283,2.65102104 L20.0114793,2.65102104 Z" id="路径"></path>
                    </g>
                </g>
            </g>
        </g>
    </g>
</svg>