<?xml version="1.0" encoding="UTF-8"?>
<svg width="42px" height="42px" viewBox="0 0 42 42" version="1.1" xmlns="http://www.w3.org/2000/svg" xmlns:xlink="http://www.w3.org/1999/xlink">
    <title>55</title>
    <defs>
        <linearGradient x1="50%" y1="0%" x2="50%" y2="100%" id="linearGradient-1">
            <stop stop-color="#88CBFE" offset="0.0453282069%"></stop>
            <stop stop-color="#529ED7" offset="100%"></stop>
        </linearGradient>
    </defs>
    <g id="页面-1" stroke="none" stroke-width="1" fill="none" fill-rule="evenodd">
        <g id="mine-（蓝色）" transform="translate(-167.000000, -592.000000)">
            <g id="Notification-2" transform="translate(135.000000, 572.000000)">
                <g id="55" transform="translate(32.000000, 20.000000)">
                    <circle id="椭圆形" fill="url(#linearGradient-1)" cx="21" cy="21" r="21"></circle>
                    <g id="通知-(1)" transform="translate(12.444444, 10.888889)" fill="#FFFFFF" fill-rule="nonzero">
                        <path d="M16.9281721,15.8786059 L14.9896215,12.0065073 C14.9696106,11.9639842 14.9571038,11.9189598 14.9571038,11.8714341 L14.9521011,7.58411043 C14.9495998,5.16529949 13.3112118,3.12919596 11.0875066,2.52136653 L11.0875066,2.51886517 C11.0875066,1.12811141 9.95939518,0 8.56864142,0 C7.18038902,0 6.05477896,1.1231087 6.04977625,2.51136111 C3.80105749,3.10918511 2.14265867,5.16029677 2.14516003,7.59661721 L2.15016274,11.8839409 C2.15016274,11.9314666 2.14015732,11.976491 2.11764512,12.0190141 L0.181595817,15.8861099 C-0.383710567,17.0167227 0.439235453,18.3499453 1.70492143,18.3474475 L15.4098492,18.3374385 C16.6730338,18.3399399 17.4959799,17.0092186 16.9281721,15.8786059 Z M6.28490368,19.0728212 C6.03226676,19.0728212 5.8946922,19.3654957 6.05227761,19.5631028 C6.63759484,20.2934987 7.53808288,20.7612522 8.54612922,20.7612522 C9.55667692,20.7612522 10.457165,20.2934987 11.0449835,19.5606014 C11.202569,19.3629943 11.0649944,19.0703357 10.8123575,19.0728212 L6.28490368,19.0728212 Z" id="形状"></path>
                    </g>
                </g>
            </g>
        </g>
    </g>
</svg>