<?xml version="1.0" encoding="UTF-8"?>
<svg width="42px" height="42px" viewBox="0 0 42 42" version="1.1" xmlns="http://www.w3.org/2000/svg" xmlns:xlink="http://www.w3.org/1999/xlink">
    <title>66</title>
    <defs>
        <linearGradient x1="50%" y1="0%" x2="50%" y2="100%" id="linearGradient-1">
            <stop stop-color="#88CBFE" offset="0.0453282069%"></stop>
            <stop stop-color="#529ED7" offset="100%"></stop>
        </linearGradient>
    </defs>
    <g id="页面-1" stroke="none" stroke-width="1" fill="none" fill-rule="evenodd">
        <g id="mine-（蓝色）" transform="translate(-287.000000, -592.000000)">
            <g id="app-2" transform="translate(255.000000, 572.000000)">
                <g id="66" transform="translate(32.000000, 20.000000)">
                    <circle id="椭圆形" fill="url(#linearGradient-1)" cx="21" cy="21" r="21"></circle>
                    <g id="app-(1)" transform="translate(11.666667, 10.888889)" fill="#FFFFFF" fill-rule="nonzero">
                        <path d="M7.4807244,19.9293527 C8.04303389,20.2607136 8.48484849,20.0398063 8.48484849,19.3670432 L8.48484849,11.5449166 C8.48484849,10.8721535 8.03299265,10.1993904 7.4807244,9.8680294 L1.00412409,5.84149183 C0.441814603,5.62058454 0,5.84149183 0,6.40380132 L0,14.2259279 C0,14.898691 0.451855838,15.5714542 1.00412409,15.9028151 L7.4807244,19.9293527 L7.4807244,19.9293527 Z M2.00824817,3.38138784 C1.44593869,3.71274878 1.44593869,4.16460462 2.00824817,4.49596558 L8.38443608,8.52250314 C8.94674556,8.85386407 9.72996234,8.85386407 10.2822306,8.63295678 L16.6584185,5.389636 C17.220728,5.05827506 17.220728,4.60641922 16.6584185,4.27505826 L9.94082841,0.248520703 C9.48897258,-0.0828402343 8.59530216,-0.0828402343 8.04303389,0.248520703 L2.00824817,3.38138784 Z M10.2822306,19.3670432 C10.2822306,20.0398063 10.7340864,20.2607136 11.2863547,19.9293527 L17.6625426,16.6860319 C18.2248521,16.354671 18.6666667,15.6819078 18.6666667,15.0091447 L18.6666667,7.17697686 C18.6666667,6.50421373 18.2148108,6.28330642 17.6625426,6.61466737 L11.2863547,9.85798816 C10.7240452,10.1893491 10.2822306,10.8621122 10.2822306,11.5348754 L10.2822306,19.3670432 L10.2822306,19.3670432 Z" id="形状"></path>
                    </g>
                </g>
            </g>
        </g>
    </g>
</svg>