<?xml version="1.0" encoding="UTF-8"?>
<svg width="42px" height="42px" viewBox="0 0 42 42" version="1.1" xmlns="http://www.w3.org/2000/svg" xmlns:xlink="http://www.w3.org/1999/xlink">
    <title>77</title>
    <defs>
        <linearGradient x1="50%" y1="0%" x2="50%" y2="100%" id="linearGradient-1">
            <stop stop-color="#88CBFE" offset="0.0453282069%"></stop>
            <stop stop-color="#529ED7" offset="100%"></stop>
        </linearGradient>
    </defs>
    <g id="页面-1" stroke="none" stroke-width="1" fill="none" fill-rule="evenodd">
        <g id="mine-（蓝色）" transform="translate(-77.000000, -710.000000)">
            <g id="Change-Password-2" transform="translate(15.000000, 690.000000)">
                <g id="77" transform="translate(62.000000, 20.000000)">
                    <circle id="椭圆形" fill="url(#linearGradient-1)" cx="21" cy="21" r="21"></circle>
                    <g id="修改密码-(2)" transform="translate(13.222222, 10.888889)" fill="#FFFFFF" fill-rule="nonzero">
                        <path d="M4.2457532,6.79320513 L4.2457532,5.09490384 C4.2457532,3.21901205 5.76646397,1.69830128 7.64235577,1.69830128 C9.51824756,1.69830128 11.0389583,3.21901205 11.0389583,5.09490384 L11.0389583,6.79320513 L12.7372596,6.79320513 L12.7372596,5.09490384 C12.7372596,2.28209235 10.4551673,0 7.64235577,0 C4.82954427,0 2.54745192,2.28209235 2.54745192,5.09490384 L2.54745192,6.79320513 L4.2457532,6.79320513 Z M10.1898077,14.4355609 L8.49150641,14.4355609 L8.49150641,12.7372596 L16.8087459,4.31311766 L18.5070472,6.01141894 L10.1898077,14.4355609 Z" id="形状"></path>
                        <path d="M11.0389583,15.2847115 L7.64235577,15.2847115 L7.64235577,11.888109 L11.888109,7.64235577 L1.69830128,7.64235577 C0.761504656,7.64512457 0.00276880336,8.40386042 0,9.34065705 L0,17.8321635 C0.00276880336,18.7689601 0.761504656,19.5276959 1.69830128,19.5304647 L13.5864103,19.5304647 C14.5232069,19.5276959 15.2819427,18.7689601 15.2847115,17.8321635 L15.2847115,11.0389583 L11.0389583,15.2847115 Z" id="路径"></path>
                    </g>
                </g>
            </g>
        </g>
    </g>
</svg>