<?xml version="1.0" encoding="UTF-8"?>
<svg width="42px" height="42px" viewBox="0 0 42 42" version="1.1" xmlns="http://www.w3.org/2000/svg" xmlns:xlink="http://www.w3.org/1999/xlink">
    <title>88</title>
    <defs>
        <linearGradient x1="50%" y1="0%" x2="50%" y2="100%" id="linearGradient-1">
            <stop stop-color="#88CBFE" offset="0.0453282069%"></stop>
            <stop stop-color="#529ED7" offset="100%"></stop>
        </linearGradient>
    </defs>
    <g id="页面-1" stroke="none" stroke-width="1" fill="none" fill-rule="evenodd">
        <g id="mine-（蓝色）" transform="translate(-257.000000, -710.000000)">
            <g id="Change-Security-Password-2" transform="translate(195.000000, 690.000000)">
                <g id="88" transform="translate(62.000000, 20.000000)">
                    <circle id="椭圆形" fill="url(#linearGradient-1)" cx="21" cy="21" r="21"></circle>
                    <g id="安全整改on" transform="translate(12.444444, 10.888889)" fill="#FFFFFF" fill-rule="nonzero">
                        <path d="M9.02527193,0.192425702 C9.15980142,0.325289331 9.28330022,0.434200589 9.3957458,0.519159474 C10.9621499,1.70259577 13.8050309,2.48262369 16.3981678,2.65251894 C16.493302,2.65875466 16.6158103,2.66496787 16.7656702,2.67118108 C16.9586173,2.6791502 17.1111111,2.8452635 17.1111111,3.04746295 L17.1111111,10.7414197 C17.1111111,12.5711648 16.3573092,14.488998 15.1435273,15.8053429 C14.5135844,16.6849623 13.7082534,17.5103061 12.8635496,18.3234712 C10.6307562,20.7449119 6.84195916,20.7345566 4.4129995,18.5905491 C3.45834888,17.7478938 2.5846951,16.7633253 1.79206067,15.6368659 C0.639915543,14.3321144 0,12.6204203 0,10.8433974 L0,3.06081234 C0,2.85870295 0.1523587,2.69263467 0.34523833,2.68453048 C0.520716472,2.67716918 0.663034986,2.66971783 0.772171359,2.66217643 C3.37872525,2.48235355 6.22516306,1.68940395 7.76815508,0.492393148 C7.86740885,0.415403379 7.97620755,0.317162634 8.09461871,0.197693423 C8.35377258,-0.0638466738 8.76341667,-0.0661653715 9.02524942,0.192425702 L9.02527193,0.192425702 Z M7.72148847,5.5828801 C7.71155552,5.5828801 7.70162691,5.58329535 7.6917281,5.58411824 C7.4934907,5.60055173 7.34610707,5.77456661 7.36254056,5.97280401 L7.97818857,13.4016413 C7.99365406,13.5883978 8.14972718,13.7320895 8.33713648,13.7320895 L8.75454709,13.7320895 C8.94193389,13.7320895 9.09802952,13.5883978 9.11351752,13.4016413 L9.72916552,5.97280401 C9.72998028,5.96291237 9.73038119,5.95299129 9.73038119,5.94306615 C9.73038119,5.74413089 9.56913036,5.5828801 9.3701951,5.5828801 L7.72148847,5.5828801 L7.72148847,5.5828801 Z M8.39683732,14.2723686 C8.19790206,14.2723686 8.03665127,14.4336194 8.03665127,14.6325546 L8.03665127,15.4879965 C8.03665127,15.6869318 8.19790206,15.8481826 8.39683732,15.8481826 L8.75702337,15.8481826 C8.95595863,15.8481826 9.11720942,15.6869318 9.11720942,15.4879965 L9.11720942,14.6325546 C9.11720942,14.4336194 8.95595863,14.2723686 8.75702337,14.2723686 L8.39683732,14.2723686 Z" id="形状"></path>
                    </g>
                </g>
            </g>
        </g>
    </g>
</svg>