<?xml version="1.0" encoding="UTF-8"?>
<svg width="24px" height="24px" viewBox="0 0 24 24" version="1.1" xmlns="http://www.w3.org/2000/svg" xmlns:xlink="http://www.w3.org/1999/xlink">
    <title>deposit</title>
    <g id="页面-1" stroke="none" stroke-width="1" fill="none" fill-rule="evenodd">
        <g id="mine-（蓝色）" transform="translate(-61.000000, -237.000000)" fill="#76BCF1" fill-rule="nonzero">
            <g id="编组-3" transform="translate(15.000000, 220.000000)">
                <g id="deposit" transform="translate(46.000000, 17.000000)">
                    <path d="M12,0 C18.6276,0 24,5.37240001 24,12 C24,18.6276 18.6276,24 12,24 C5.37240001,24 0,18.6276 0,12 C0,5.37240001 5.37240001,0 12,0 Z M11.964,5.39999912 L11.952,5.39999912 C11.7331477,5.39968144 11.5231499,5.48639697 11.3682853,5.6410365 C11.2134207,5.79567603 11.1263998,6.00554745 11.1264,6.2244 C9.29760001,6.2244 7.80000001,7.70999998 7.80000001,9.52440001 C7.80000001,11.34 9.29760001,12.8244 11.1264,12.8244 L11.1264,16.1244 C10.2131652,16.1250882 9.47045288,15.3888062 9.46320001,14.4756 L9.45359999,14.4744 L9.44880001,14.3952 C9.39355459,13.9669827 9.01853217,13.6530979 8.58727827,13.674127 C8.15602436,13.6951561 7.81332031,14.0440392 7.80000001,14.4756 L7.80000001,14.5356 C7.83360002,16.3236 9.318,17.7756 11.1264,17.7756 L11.136,17.8968 C11.1948,18.2952 11.538,18.6 11.952,18.6 L11.964,18.6 C12.42,18.6 12.7896,18.2304 12.7896,17.7756 C14.6196,17.7756 16.1172,16.29 16.2,14.4756 C16.2,13.4856 15.7008,12.5772 15.036,12 C14.454,11.5044 13.704,11.1744 13.1232,11.1744 L12.7896,11.1744 L12.7896,7.8744 C13.7052,7.8744 14.454,8.61839999 14.454,9.52440001 L14.46,9.52559999 C14.46,9.98289177 14.8307082,10.3536 15.288,10.3536 C15.7452918,10.3536 16.116,9.98289177 16.116,9.52559999 C16.116,7.70999998 14.6196,6.2256 12.7896,6.2256 L12.7812,6.1032 C12.7206353,5.69919924 12.3737152,5.40023571 11.9652,5.39999912 L11.964,5.39999912 Z M12.7896,12.8256 C13.7052,12.8256 14.454,13.5672 14.454,14.4756 C14.454,15.3828 13.7052,16.1244 12.7896,16.1244 L12.7896,12.8256 Z M11.1264,11.1756009 C10.212236,11.1762794 9.46914018,10.438545 9.46320001,9.52440001 C9.46320001,8.61720001 10.212,7.87560001 11.1264,7.87560001 L11.1264,11.1756009 Z" id="形状"></path>
                </g>
            </g>
        </g>
    </g>
</svg>