<?xml version="1.0" encoding="UTF-8"?>
<svg width="22px" height="22px" viewBox="0 0 22 22" version="1.1" xmlns="http://www.w3.org/2000/svg" xmlns:xlink="http://www.w3.org/1999/xlink">
    <title>home-s@2x</title>
    <g id="页面-1" stroke="none" stroke-width="1" fill="none" fill-rule="evenodd">
        <g id="首页-（黑金）" transform="translate(-27.000000, -1772.000000)" fill="#FEC567" fill-rule="nonzero">
            <g id="标签栏" transform="translate(0.000000, 1760.000000)">
                <g id="黑白配色激活icon" transform="translate(18.000000, 9.000000)">
                    <g id="home-s" transform="translate(9.000000, 3.000000)">
                        <path d="M11.0023457,1.57917179e-06 C12.0841823,-0.000841526629 13.1363358,0.335931964 13.9968971,0.958499834 L13.9968971,0.958499834 L21.0240474,6.03716934 C21.6411355,6.4823479 22.0046913,7.1728289 21.9999543,7.90873629 L21.9999543,7.90873629 L21.9999543,17.693579 C21.9999543,20.0693788 19.9716491,22.0000016 17.4650278,22.0000016 L17.4650278,22.0000016 L4.53487985,22.0000016 C2.03304212,22.0000016 0,20.0739214 0,17.693579 L0,17.693579 L0,7.90873629 C0,7.1728289 0.35877214,6.48234787 0.975860222,6.03716934 L0.975860222,6.03716934 L8.00779417,0.958499834 C8.89276547,0.317987848 9.94516376,1.57917179e-06 11.0023457,1.57917179e-06 Z M14.7372317,10 C14.199852,10 13.7601777,10.3921569 13.7601777,10.8714597 L13.7601777,10.8714597 L13.7601777,13.795207 C13.7601777,15.1546841 12.5242043,16.2570806 11,16.2570806 C9.4757957,16.2570806 8.23982234,15.1503268 8.23982234,13.795207 L8.23982234,13.795207 L8.23982234,10.8714597 C8.23982234,10.3921569 7.80014802,10 7.26276831,10 C6.7253886,10 6.28571429,10.3921569 6.28571429,10.8714597 L6.28571429,10.8714597 L6.28571429,13.795207 C6.28571429,16.1132898 8.40103625,18 11,18 C13.603849,18 15.7142857,16.1132898 15.7142857,13.795207 L15.7142857,13.795207 L15.7142857,10.8714597 C15.7142857,10.3921569 15.2746114,10 14.7372317,10 Z" id="home"></path>
                    </g>
                </g>
            </g>
        </g>
    </g>
</svg>