<?xml version="1.0" encoding="UTF-8"?>
<svg width="22px" height="22px" viewBox="0 0 22 22" version="1.1" xmlns="http://www.w3.org/2000/svg" xmlns:xlink="http://www.w3.org/1999/xlink">
    <title>mine-s</title>
    <g id="页面-1" stroke="none" stroke-width="1" fill="none" fill-rule="evenodd">
        <g id="mine-（黑金）" transform="translate(-327.000000, -840.000000)" fill="#FEC567" fill-rule="nonzero">
            <g id="标签栏" transform="translate(0.000000, 829.000000)">
                <g id="黑白配色激活icon" transform="translate(18.000000, 8.000000)">
                    <g id="mine" transform="translate(300.000000, 0.000000)">
                        <g id="mine-s" transform="translate(9.000000, 3.000000)">
                            <path d="M11,0 C17.0652411,0 22,4.93475889 22,11 C22,17.0652411 17.0652411,22 11,22 C4.93475889,22 0,17.0652411 0,11 C0,4.93475889 4.93475889,0 11,0 Z M11,13.0953524 C7.79336679,13.0953524 5.0091643,15.0802967 3.78747545,17.8404975 C5.60200742,19.7534366 8.1605935,20.9535239 11,20.9535239 C13.8370063,20.9535239 16.3931922,19.7534366 18.2077242,17.8452978 C16.9884355,15.0826969 14.2090334,13.0953524 11,13.0953524 Z M10.9996733,3.90464761 C8.79488265,3.90464761 7.00234513,5.70023886 7.00234513,7.90502947 C7.00234513,10.1098201 8.79488265,11.9054113 10.9996733,11.9054113 C13.2075176,11.9054113 15.0000551,10.1098201 15.0000551,7.90502947 C15.0000551,5.69718513 13.2044639,3.90464761 10.9996733,3.90464761 Z M13,8 C13,9.1045695 12.1045695,10 11,10 C9.8954305,10 9,9.1045695 9,8 L9,8 Z" id="形状结合"></path>
                        </g>
                    </g>
                </g>
            </g>
        </g>
    </g>
</svg>