<?xml version="1.0" encoding="UTF-8"?>
<svg width="46px" height="47px" viewBox="0 0 46 47" version="1.1" xmlns="http://www.w3.org/2000/svg" xmlns:xlink="http://www.w3.org/1999/xlink">
    <title>logo</title>
    <g id="页面-1" stroke="none" stroke-width="1" fill="none" fill-rule="evenodd">
        <g id="首页-（蓝色）" transform="translate(-15.000000, -54.000000)">
            <g id="logo" transform="translate(15.000000, 54.000000)">
                <rect id="矩形" fill="#0D77B3" x="20.6424175" y="14.4417113" width="5.06883607" height="16.727159"></rect>
                <polygon id="路径-8" fill="#1E8FCE" points="3.11848227 31.5735553 20.627535 14.3706189 25.7145987 14.3706189 25.7145987 16.6509734 6.66053065 35.3797283"></polygon>
                <polygon id="路径-10" fill="#1E8FCE" points="20.6424175 29.0567765 20.6424175 31.1688703 25.7112536 31.1688703 41.8603278 15.118244 43.9409154 17.0766078 45.9185515 7.71928646 36.4196304 9.66597288 38.3191352 11.8052759"></polygon>
                <polygon id="路径-11" fill="#FFB863" points="7.2224362 24.5513853 4.26461082 27.5408276 -5.20117375e-14 23.0677964 22.882936 0 34.5951188 11.7848243 31.8790954 14.4417113 22.882936 5.57098121 5.74382811 23.0677964"></polygon>
                <polygon id="路径-11备份" fill="#FFB863" transform="translate(28.566143, 32.271665) scale(-1, -1) translate(-28.566143, -32.271665) " points="18.354723 43.052637 15.3968976 46.0420792 11.1322868 41.569048 34.0152228 18.5012516 46 30.515024 43.2839765 33.171911 34.0152228 24.0722329 16.8761149 41.569048"></polygon>
            </g>
        </g>
    </g>
</svg>