<?xml version="1.0" encoding="UTF-8"?>
<svg width="19px" height="21px" viewBox="0 0 19 21" version="1.1" xmlns="http://www.w3.org/2000/svg" xmlns:xlink="http://www.w3.org/1999/xlink">
    <title>task-s</title>
    <g id="页面-1" stroke="none" stroke-width="1" fill="none" fill-rule="evenodd">
        <g id="task-（黑金）-doing" transform="translate(-103.000000, -743.000000)" fill="#FEC567" fill-rule="nonzero">
            <g id="标签栏" transform="translate(0.000000, 729.000000)">
                <g id="黑白配色激活icon" transform="translate(18.000000, 9.000000)">
                    <g id="trading" transform="translate(75.000000, 0.000000)">
                        <g id="task-s" transform="translate(10.000000, 5.000000)">
                            <path d="M13.8600591,0 L2.20411976,0 C0.987638363,0 0,0.987638363 0,2.20411976 L0,15.1006292 C0,17.9370784 2.30649691,20.2405643 5.13993502,20.2405643 L16.7958744,20.2405643 C18.0123558,20.2405643 19,19.2529259 19,18.0364445 L19,5.13993502 C19.0030052,2.30649691 16.6965083,0 13.8600591,0 L13.8600591,0 Z M10.0389826,13.8148927 L5.29651183,13.8148927 C4.76053735,13.8148927 4.32694002,13.3812954 4.32694002,12.8453209 C4.32694002,12.3093464 4.76053735,11.872738 5.29651183,11.872738 L10.0389826,11.872738 C10.5749571,11.872738 11.0085699,12.3063353 11.0085699,12.8453209 C11.0115655,13.3782843 10.5749571,13.8148927 10.0389826,13.8148927 Z M13.7034823,8.24136036 L5.29651183,8.24136036 C4.76053735,8.24136036 4.32694002,7.80776303 4.32694002,7.27178856 C4.32694002,6.73581408 4.76053735,6.30221675 5.29651183,6.30221675 L13.7034823,6.30221675 C14.2394568,6.30221675 14.6730541,6.73581408 14.6730541,7.27178856 C14.6730541,7.80776303 14.2394568,8.24136036 13.7034823,8.24136036 L13.7034823,8.24136036 Z" id="形状"></path>
                        </g>
                    </g>
                </g>
            </g>
        </g>
    </g>
</svg>