<?xml version="1.0" encoding="UTF-8"?>
<svg width="22px" height="21px" viewBox="0 0 22 21" version="1.1" xmlns="http://www.w3.org/2000/svg" xmlns:xlink="http://www.w3.org/1999/xlink">
    <title>vip-s</title>
    <g id="页面-1" stroke="none" stroke-width="1" fill="none" fill-rule="evenodd">
        <g id="vip-（黑金）" transform="translate(-252.000000, -742.000000)" fill="#FEC567" fill-rule="nonzero">
            <g id="标签栏" transform="translate(0.000000, 729.000000)">
                <g id="黑白配色激活icon" transform="translate(18.000000, 9.000000)">
                    <g id="share" transform="translate(225.000000, 0.000000)">
                        <g id="vip-s" transform="translate(9.000000, 4.000000)">
                            <path d="M20.7618731,3.06813118 C20.5840744,3.06813115 20.409966,3.11885762 20.2599904,3.21435471 L16.0709261,5.88178514 L11.7350069,0.35749031 C11.5578721,0.131802087 11.2868752,9.18753229e-16 10.9999747,9.18753229e-16 C10.7130743,9.18753229e-16 10.4420774,0.131802087 10.2649426,0.35749031 L5.92902339,5.88178514 L1.73995904,3.21435471 C1.58998053,3.11886406 1.41587412,3.06813815 1.23807643,3.06813118 C0.555396886,3.06813118 6.89064921e-16,3.61456272 6.89064921e-16,4.28620605 C6.89064921e-16,4.33974558 0.00459631835,4.3931841 0.0137637006,4.44591549 L2.53545043,18.9815702 C2.59143964,19.6025783 3.12314781,20.0911013 3.76865274,20.0911013 L18.2313473,20.0911013 C18.8768774,20.0911013 19.4085856,19.6026036 19.4645748,18.9815702 L21.9862616,4.44591549 C21.9954037,4.3931841 22,4.33972033 22,4.28620605 C22,3.61456272 21.4445526,3.06813118 20.7618731,3.06813118 Z M14.5185322,11.1458324 L11.794759,15.50491 C11.6175229,15.7885685 11.3129537,15.9442877 11.0014395,15.9442877 L10.9999747,15.9442877 L10.99851,15.9442877 C10.6869705,15.9442877 10.3824518,15.7885685 10.2051905,15.50491 L7.48141728,11.1458324 C7.20793634,10.708172 7.34105279,10.1317128 7.77868796,9.85825713 C8.21632313,9.58477619 8.79280752,9.71789264 9.06626321,10.1555278 L10.9999747,13.2501633 L12.933661,10.1555278 C13.2071167,9.71786738 13.7836011,9.58477619 14.2212363,9.85825713 C14.6588967,10.1317128 14.7919879,10.7081972 14.5185322,11.1458324 L14.5185322,11.1458324 Z" id="形状"></path>
                        </g>
                    </g>
                </g>
            </g>
        </g>
    </g>
</svg>