<?xml version="1.0" encoding="UTF-8"?>
<svg width="22px" height="22px" viewBox="0 0 22 22" version="1.1" xmlns="http://www.w3.org/2000/svg" xmlns:xlink="http://www.w3.org/1999/xlink">
    <title>Withdraw</title>
    <g id="页面-1" stroke="none" stroke-width="1" fill="none" fill-rule="evenodd">
        <g id="mine-（蓝色）" transform="translate(-228.000000, -238.000000)" fill="#76BCF1" fill-rule="nonzero">
            <g id="编组-3" transform="translate(15.000000, 220.000000)">
                <g id="Withdraw" transform="translate(213.000000, 18.000000)">
                    <path d="M21.842511,19.8947298 C21.7375184,20.1612496 21.5881057,20.395464 21.3942731,20.5973729 C21.2004405,20.7992819 20.9743025,20.9567709 20.715859,21.0698399 C20.4574156,21.1829089 20.174743,21.2394434 19.8678414,21.2394434 L2.27753304,21.2394434 C1.97063142,21.2394434 1.67988253,21.1829089 1.40528634,21.0698399 C1.13069016,20.9567709 0.888399413,20.7992819 0.678414097,20.5973729 C0.468428781,20.395464 0.302863436,20.1612496 0.181718062,19.8947298 C0.0605726872,19.6282099 0,19.3414992 0,19.0345976 L0,6.94428924 C0,6.33048601 0.214023495,5.8095609 0.642070485,5.38151391 C1.07011747,4.95346692 1.59104258,4.73944343 2.20484581,4.73944343 L19.7951542,4.73944343 C20.4089574,4.73944343 20.9298825,4.95346692 21.3579295,5.38151391 C21.7859765,5.8095609 22,6.33048601 22,6.94428924 L22,10.2394434 L16.5,10.2394434 C15.8861968,10.2394434 15.3652717,10.4494287 14.9372247,10.8693994 C14.5091777,11.28937 14.2951542,11.8062569 14.2951542,12.4200602 C14.3113069,12.8400308 14.4001468,13.2115433 14.561674,13.5345976 C14.6908957,13.8091938 14.9049192,14.0595609 15.2037445,14.2856989 C15.5025698,14.511837 15.9346549,14.624906 16.5,14.624906 L22,14.624906 L22,19.0345976 C22,19.3414992 21.9475037,19.6282099 21.842511,19.8947298 Z M18.7048458,3.62490598 L7.70484581,3.62490598 C8.57709251,3.17262992 9.40088106,2.73650657 10.1762115,2.31653594 C10.8546256,1.96117618 11.5249633,1.60581641 12.1872247,1.25045665 C12.849486,0.89509688 13.366373,0.620500698 13.7378855,0.426668099 C14.3032305,0.119766484 14.8080029,-0.0215697862 15.2522026,0.00265928871 C15.6964023,0.0268883636 16.071953,0.103613767 16.3788546,0.2328355 C16.7342144,0.410515383 17.041116,0.644729773 17.2995595,0.935478672 L18.7048458,3.62490598 Z M15.4096916,12.4200602 C15.4096916,12.1131586 15.5146843,11.8547151 15.7246696,11.6447298 C15.9346549,11.4347445 16.1930984,11.3297518 16.5,11.3297518 C16.8069016,11.3297518 17.0653451,11.4347445 17.2753304,11.6447298 C17.4853157,11.8547151 17.5903084,12.1131586 17.5903084,12.4200602 C17.5903084,12.7269618 17.4853157,12.9894434 17.2753304,13.2075051 C17.0653451,13.4255668 16.8069016,13.5345976 16.5,13.5345976 C16.1930984,13.5345976 15.9346549,13.4255668 15.7246696,13.2075051 C15.5146843,12.9894434 15.4096916,12.7269618 15.4096916,12.4200602 Z" id="形状"></path>
                </g>
            </g>
        </g>
    </g>
</svg>